<?xml version="1.0" encoding="utf-8"?>
<!-- Generator: Adobe Illustrator 21.0.0, SVG Export Plug-In . SVG Version: 6.00 Build 0)  -->
<svg version="1.1" id="Texto" xmlns="http://www.w3.org/2000/svg" xmlns:xlink="http://www.w3.org/1999/xlink" x="0px" y="0px"
	 width="209.4px" height="15.1px" viewBox="0 0 209.4 15.1" style="enable-background:new 0 0 209.4 15.1;" xml:space="preserve">
<style type="text/css">
	.st0{fill:#21E6C1;}
	.st1{fill:#FFFFFF;}
</style>
<g>
	<path class="st0" d="M7.6,15.1v-3h2.9L7.6,4.6L3.6,15.1H0.2l6-15h3l6,15H7.6z"/>
	<path class="st1" d="M20.8,0.1h15v3h-12v9h12v3h-15V0.1z"/>
	<path class="st1" d="M41.4,0.1h15v3h-6v12h-3v-12h-6V0.1z"/>
	<path class="st1" d="M65,0.1v15h-3v-15H65z"/>
	<path class="st1" d="M85.7,15.1h-15v-15h3v12h9l0,0h3V15.1z"/>
	<path class="st1" d="M94.3,9.1v3h12v3h-15v-15h15v3h-12v3h9v3H94.3z"/>
	<path class="st1" d="M111.8,0.1h15v3h-12v9h12v3h-15V0.1z"/>
	<path class="st1" d="M132.4,0.1h15v3h-6v12h-3v-12h-6V0.1z"/>
	<path class="st1" d="M159.1,9.1h-3v6h-3v-15h15v9h-5.3l5.3,6h-3.7L159.1,9.1z M156.1,3.1v3h9v-3H156.1z"/>
	<path class="st1" d="M176.6,0.1v12h9v-12h3v15h-15v-15H176.6z"/>
	<path class="st1" d="M194.3,15.1v-15h15v15h-3v-12h-3v12h-3v-12h-3v12H194.3z"/>
</g>
</svg>
