<?xml version="1.0" encoding="utf-8"?>
<!-- Generator: Adobe Illustrator 21.0.0, SVG Export Plug-In . SVG Version: 6.00 Build 0)  -->
<svg version="1.1" id="Capa_1" xmlns="http://www.w3.org/2000/svg" xmlns:xlink="http://www.w3.org/1999/xlink" x="0px" y="0px"
	 width="250px" height="250px" viewBox="0 0 250 250" style="enable-background:new 0 0 250 250;" xml:space="preserve">
<style type="text/css">
	.st0{clip-path:url(#SVGID_2_);}
	.st1{fill:#0862A9;}
	.st2{fill:#9BC339;}
</style>
<g>
	<defs>
		<polygon id="SVGID_1_" points="16.7,62.5 16.7,187.5 125,250 233.3,187.5 233.3,62.5 125,0 		"/>
	</defs>
	<clipPath id="SVGID_2_">
		<use xlink:href="#SVGID_1_"  style="overflow:visible;"/>
	</clipPath>
	<g class="st0">
		<polygon class="st1" points="233.3,75 233.3,187.5 135.8,243.8 135.8,193.8 189.9,162.5 190,100 		"/>
		<polygon class="st1" points="222.4,56.3 179.1,81.3 125,50 70.9,81.2 27.6,56.2 125,0 		"/>
		<polygon class="st1" points="114.2,193.7 114.2,243.7 16.7,187.5 16.7,75 60.1,100 60,162.5 		"/>
		<polygon class="st2" points="168.3,100 168.3,150 125,175 81.7,150 81.7,100 125,75 		"/>
	</g>
</g>
</svg>
